<?xml version="1.0" encoding="iso-8859-1"?>
<!-- Uploaded to: SVG Repo, www.svgrepo.com, Generator: SVG Repo Mixer Tools -->
<svg fill="#5c636c" height="800px" width="800px" version="1.1" id="Capa_1" xmlns="http://www.w3.org/2000/svg" xmlns:xlink="http://www.w3.org/1999/xlink" 
	 viewBox="0 0 488.4 488.4" xml:space="preserve">
<g>
	<path d="M201,406.3L201,406.3L201,406.3c0,4.1-0.1,9.2-0.8,14.3l-2.7,48.9c0,3.6-2.9,6.5-6.5,6.5l-76.6-0.4c-3.6,0-6.5-2.9-6.5-6.5
		l-1.4-40.4l-72.7-87.6c-10.7-11.4-18-24.2-20.3-39.6l-0.7-4.5L0.1,174.1c-0.6-6.1,1.5-12.3,6.2-16.1c5.7-4.6,14.7-6.3,21.4,1.3
		c4.7,5.4,7,22.2,7.8,26.7c2.7,16.1,5.4,39.1,5.8,55.3c0,1.1,0.1,2.6,0.2,3.7c0.4,7.1,2.1,13.7,5.1,20.2
		c16.4,35.6,49.3,80.6,49.3,80.6l1.8,2.7c1.4,2,4.1,2.7,6.3,1.5c2.4-1.3,3.2-4.4,1.8-6.7l-43.6-71.1c-4.7-7.9-2-19.1,6.5-24.3
		c8.5-5.2,19.7-2.6,24.4,5.3l45.3,58.2c3,3.8,8.5,9.3,12.4,12.1c40.7,29.3,46.2,59.1,49.8,74.3C200.6,398,200.9,401.4,201,406.3z
		 M46,167.9c1.3,4.3,2.2,8.7,2.9,12.9c2.3,13.9,5.8,39,6,52.3c0,1.4,0.1,2.7,0.1,4.1c1.5-1.3,3.1-2.6,4.9-3.7
		c2.2-1.4,4.5-2.4,6.9-3.2c0.1-0.2,0.2-0.3,0.3-0.4c-1.7-12.7-6.2-36.7-9.5-49.1C55.9,174.5,52.3,169.9,46,167.9z M70.4,185.5
		c2,9.2,7.2,26.1,8.4,35.1l0.8,6.1c0.1,0.6,0.1,1.2,0.1,1.8c3.7,0.1,7.4,0.9,10.9,2.2c-1.2-8.2-6.7-24.6-8.7-32.3
		C80.1,192.1,76.5,187.6,70.4,185.5z M460.7,159.3c-4.7,5.4-7,22.2-7.8,26.7c-2.7,16.1-5.4,39.1-5.8,55.3c0,1.1-0.1,2.6-0.2,3.7
		c-0.4,7.1-2.1,13.7-5.1,20.2c-16.4,35.6-49.3,80.6-49.3,80.6l-1.8,2.7c-1.4,2-4.1,2.7-6.3,1.5c-2.4-1.3-3.2-4.4-1.8-6.7l43.6-71.1
		c4.7-7.9,2-19.1-6.5-24.3c-8.5-5.2-19.7-2.6-24.4,5.3L350,311.4c-3,3.8-8.5,9.3-12.4,12.1c-40.7,29.3-46.2,59.1-49.8,74.3
		c0,0-0.3,3.4-0.4,8.3l0,0c0,4.1,0.1,9.2,0.8,14.3l2.7,48.9c0,3.6,2.9,6.5,6.5,6.5l76.6-0.4c3.6,0,6.5-2.9,6.5-6.5l1.4-40.4
		l72.7-87.6c10.7-11.4,18-24.2,20.3-39.6l0.7-4.5l12.7-122.9c0.6-6.1-1.5-12.3-6.2-16.1C476.4,153.4,467.4,151.7,460.7,159.3z
		 M433.5,237.1c0-1.4,0.1-2.7,0.1-4.1c0.3-13.3,3.7-38.4,6-52.3c0.7-4.2,1.5-8.5,2.9-12.9c-6.3,2.1-10,6.6-11.6,12.8
		c-3.3,12.4-7.8,36.4-9.5,49.1c0.1,0.2,0.2,0.3,0.3,0.4c2.4,0.8,4.7,1.9,6.9,3.2C430.3,234.6,431.9,235.8,433.5,237.1z M409.6,220.5
		c1.2-8.9,6.3-25.8,8.4-35.1c-6.2,2.1-9.8,6.6-11.4,12.8c-2,7.7-7.5,24.1-8.7,32.3c3.5-1.3,7.2-2,10.9-2.2c0-0.6,0-1.2,0.1-1.8
		L409.6,220.5z M386.5,221c0-6-4.8-10.8-10.8-10.8H116.2c-6,0-10.8,4.8-10.8,10.8s4.8,10.8,10.8,10.8h259.5
		C381.7,231.8,386.5,227,386.5,221z M347.8,260.1c0-6-4.8-10.8-10.8-10.8H135.4c-6,0-10.8,4.8-10.8,10.8s4.8,10.8,10.8,10.8H337
		C343,270.9,347.8,266.1,347.8,260.1z M171.5,288.5c-6,0-10.8,4.8-10.8,10.8s4.8,10.8,10.8,10.8h129.3c6,0,10.8-4.8,10.8-10.8
		s-4.8-10.8-10.8-10.8H171.5z M324.8,87.4c-8.5,0-15.3,6.9-15.3,15.3c0,8.5,6.9,15.3,15.3,15.3s15.3-6.9,15.3-15.3
		C340.1,94.2,333.2,87.4,324.8,87.4z M163.6,87.4c-8.5,0-15.3,6.9-15.3,15.3c0,8.5,6.9,15.3,15.3,15.3s15.3-6.9,15.3-15.3
		C179,94.2,172.1,87.4,163.6,87.4z M390.1,167.8c0,13.9-11.3,25.3-25.3,25.3H123.6c-13.9,0-25.3-11.3-25.3-25.3V37.7
		c0-13.9,11.3-25.3,25.3-25.3h241.2c13.9,0,25.3,11.3,25.3,25.3L390.1,167.8L390.1,167.8z M368.5,65c-2,0.5-4.1,0.8-6.3,0.8
		c-14.1,0-25.6-11.5-25.6-25.6c0-2.2,0.3-4.2,0.8-6.2H149.5c0.3,1.5,0.4,3.1,0.4,4.7c0,14.1-11.5,25.6-25.6,25.6
		c-1.5,0-3-0.1-4.5-0.4v77.7c1.5-0.3,3-0.4,4.5-0.4c14.1,0,25.6,11.5,25.6,25.6c0,1.6-0.2,3.2-0.4,4.7h187.2c-0.1-1-0.2-2.1-0.2-3.2
		c0-14.1,11.5-25.6,25.6-25.6c2.2,0,4.3,0.3,6.3,0.8V65H368.5z M299.6,102.7c0,30.6-24.8,55.4-55.4,55.4s-55.4-24.8-55.4-55.4
		s24.8-55.4,55.4-55.4C274.8,47.3,299.6,72.1,299.6,102.7z M254.7,99.3c-3-1.7-6.1-2.9-9.3-4.2c-1.8-0.8-3.6-1.6-5.1-2.9
		c-3-2.4-2.4-6.3,1.1-7.9c1-0.4,2-0.6,3.1-0.6c4.1-0.2,8,0.5,11.7,2.3c1.8,0.9,2.5,0.6,3.1-1.3c0.7-2,1.2-4.1,1.8-6.2
		c0.4-1.4-0.1-2.3-1.4-2.9c-2.4-1-4.8-1.8-7.4-2.2c-3.4-0.5-3.4-0.5-3.4-3.9c0-4.8,0-4.8-4.8-4.8c-0.7,0-1.4,0-2.1,0
		c-2.2,0.1-2.6,0.4-2.7,2.7c0,1,0,2,0,3c0,3,0,2.9-2.9,4c-6.9,2.5-11.2,7.2-11.6,14.7c-0.4,6.7,3.1,11.2,8.5,14.4
		c3.4,2,7.1,3.2,10.7,4.8c1.4,0.6,2.7,1.3,3.9,2.3c3.4,2.8,2.8,7.6-1.3,9.3c-2.2,1-4.5,1.2-6.8,0.9c-3.7-0.5-7.1-1.4-10.4-3.1
		c-1.9-1-2.5-0.7-3.1,1.4c-0.6,1.8-1.1,3.6-1.6,5.4c-0.7,2.4-0.4,3,1.9,4.2c3,1.4,6.2,2.2,9.4,2.7c2.5,0.4,2.6,0.5,2.6,3.1
		c0,1.2,0,2.4,0,3.6c0,1.5,0.7,2.4,2.3,2.4c1.8,0,3.5,0,5.3,0c1.4,0,2.2-0.8,2.2-2.3c0-1.6,0.1-3.3,0-4.9c-0.1-1.7,0.6-2.5,2.2-2.9
		c3.7-1,6.8-3,9.2-5.9C266.8,116.4,264.2,104.5,254.7,99.3z"/>
</g>
</svg>
